<svg width="20" height="20" viewBox="0 0 20 20" fill="none" xmlns="http://www.w3.org/2000/svg">
<g id="Eye">
<g id="Vector">
<path d="M11.1785 11.1785C10.866 11.491 10.442 11.6666 10 11.6666C9.55797 11.6666 9.13405 11.491 8.82149 11.1785C8.50893 10.8659 8.33333 10.442 8.33333 9.99996C8.33333 9.55793 8.50893 9.13401 8.82149 8.82145C9.13405 8.50889 9.55797 8.33329 10 8.33329C10.442 8.33329 10.866 8.50889 11.1785 8.82145C11.4911 9.13401 11.6667 9.55793 11.6667 9.99996C11.6667 10.442 11.4911 10.8659 11.1785 11.1785Z" fill="#1CA350"/>
<path fill-rule="evenodd" clip-rule="evenodd" d="M10 4.16663C6.26834 4.16663 3.11001 6.61913 2.04834 9.99996C3.11001 13.3808 6.26834 15.8333 10 15.8333C13.7317 15.8333 16.89 13.3808 17.9517 9.99996C16.89 6.61913 13.7317 4.16663 10 4.16663ZM12.357 12.357C12.9822 11.7319 13.3333 10.884 13.3333 9.99996C13.3333 9.1159 12.9822 8.26806 12.357 7.64294C11.7319 7.01782 10.8841 6.66663 10 6.66663C9.11595 6.66663 8.26811 7.01782 7.64298 7.64294C7.01786 8.26806 6.66667 9.1159 6.66667 9.99996C6.66667 10.884 7.01786 11.7319 7.64298 12.357C8.26811 12.9821 9.11595 13.3333 10 13.3333C10.8841 13.3333 11.7319 12.9821 12.357 12.357Z" fill="#1CA350"/>
</g>
</g>
</svg>
