<svg width="200" height="200" viewBox="0 0 200 200" fill="none" xmlns="http://www.w3.org/2000/svg">
<g id="_Pie chart">
<path id="Background" d="M200 100C200 155.228 155.228 200 100 200C44.7715 200 0 155.228 0 100C0 44.7715 44.7715 0 100 0C155.228 0 200 44.7715 200 100ZM50 100C50 127.614 72.3858 150 100 150C127.614 150 150 127.614 150 100C150 72.3858 127.614 50 100 50C72.3858 50 50 72.3858 50 100Z" fill="#EAECF0"/>
<path id="Series 1" d="M100 0C121.118 2.51829e-07 141.694 6.6855 158.779 19.0983C175.863 31.5111 188.58 49.014 195.106 69.0983L147.553 84.5492C144.29 74.507 137.932 65.7556 129.389 59.5492C120.847 53.3427 110.559 50 100 50V0Z" fill="#1CA350"/>
<path id="Series 2" d="M195.106 69.0983C200.805 86.6379 201.542 105.412 197.237 123.345C192.932 141.277 183.751 157.67 170.711 170.711C157.67 183.751 141.277 192.932 123.345 197.237C105.412 201.542 86.638 200.805 69.0984 195.106L84.5492 147.553C93.319 150.402 102.706 150.771 111.672 148.618C120.639 146.466 128.835 141.876 135.355 135.355C141.876 128.835 146.466 120.639 148.618 111.672C150.771 102.706 150.402 93.319 147.553 84.5492L195.106 69.0983Z" fill="#29B05D"/>
<path id="Series 3" d="M69.0983 195.106C49.014 188.58 31.5111 175.863 19.0983 158.779L59.5491 129.389C65.7555 137.932 74.507 144.29 84.5491 147.553L69.0983 195.106Z" fill="#3CC370"/>
<path id="Series 4" d="M19.0983 158.779C4.14816 138.201 -2.39928 112.701 0.788532 87.4667L50.3943 93.7333C48.8004 106.35 52.0741 119.101 59.5491 129.389L19.0983 158.779Z" fill="#52D986"/>
</g>
</svg>
